<svg width="24" height="23" viewBox="0 0 24 23" fill="none" xmlns="http://www.w3.org/2000/svg">
<g clip-path="url(#clip0_46_132)">
<path d="M11.2232 14.2612L2.10437 23H20.3419L11.2232 14.2612Z" fill="#167EE6"/>
<path d="M20.2897 23L11.2173 14.2556V23H20.2897Z" fill="#2860CC"/>
<path d="M22.4349 2.25002C22.4349 1.83 22.0905 1.5 21.6522 1.5H2.10437L22.4348 20.9833V2.25002H22.4349Z" fill="#B8C8D9"/>
<path d="M0.782625 1.5C0.344344 1.5 0 1.83 0 2.25002V21.0334L20.3826 1.5H0.782625Z" fill="#12B347"/>
<path d="M22.2078 1.71751C22.0669 1.58252 21.8713 1.5 21.6522 1.5H11.2173V12.2501L22.2078 1.71751Z" fill="#0F993E"/>
<path d="M12.3235 11.19L22.4348 20.88V22.25C22.4348 22.67 22.0905 23 21.6522 23H20.2226L10.1113 13.31L12.3235 11.19Z" fill="#E6F3FF"/>
<path d="M22.4348 2.25002V3.62997L2.20692 23H0.782625C0.344297 23 0 22.67 0 22.25V20.885L9.64702 11.64L20.2122 1.5H21.6522C22.0905 1.5 22.4348 1.82995 22.4348 2.25002Z" fill="#D0D0D0"/>
<path d="M22.4348 2.25002V3.63002L11.2158 14.3763V10.133L20.2122 1.5H21.6522C22.0905 1.5 22.4348 1.83 22.4348 2.25002Z" fill="#D0D0D0" fill-opacity="0.8"/>
<path d="M6.78267 10.5C5.05697 10.5 3.65222 9.15379 3.65222 7.49999C3.65222 5.84619 5.05697 4.49997 6.78267 4.49997C7.20605 4.49997 7.61724 4.58051 8.00246 4.73729C8.39986 4.89991 8.58483 5.34077 8.41514 5.72171C8.24546 6.10112 7.78692 6.27982 7.38792 6.1172C7.19841 6.03953 6.99361 6 6.78267 6C5.91905 6 5.21747 6.67235 5.21747 7.49999C5.21747 8.32763 5.91905 8.99997 6.78267 8.99997C7.36046 8.99997 7.86638 8.69823 8.13849 8.24996H7.5653C7.13274 8.24996 6.78267 7.91453 6.78267 7.49994C6.78267 7.08536 7.13269 6.74993 7.5653 6.74993H9.1305C9.56307 6.74993 9.91313 7.08536 9.91313 7.49994C9.91308 9.15383 8.50838 10.5 6.78267 10.5Z" fill="white"/>
<path d="M18.5217 0C15.5013 0 13.0435 2.35543 13.0435 5.25002C13.0435 6.17285 13.2972 7.0796 13.7756 7.87206L17.8445 14.625C17.9836 14.8565 18.2419 15 18.5217 15C18.8014 15 19.0598 14.8565 19.1988 14.625L23.2678 7.87206C23.7463 7.0796 24 6.17285 24 5.25002C24 2.35543 21.5422 0 18.5217 0Z" fill="#FF4B26"/>
<path d="M19.1989 14.625L23.2679 7.87202C23.7463 7.0796 24 6.17285 24 5.25002C24 2.35543 21.5422 0 18.5217 0V3.00002C19.8164 3.00002 20.8696 4.00932 20.8696 5.25002C20.8696 6.49072 19.8164 7.50002 18.5217 7.50002V15C18.8014 15 19.0598 14.8564 19.1989 14.625Z" fill="#D93F21"/>
<path d="M18.5218 7.50003C17.2271 7.50003 16.174 6.49073 16.174 5.25003C16.174 4.00934 17.2271 3.00003 18.5218 3.00003C19.8164 3.00003 20.8696 4.00934 20.8696 5.25003C20.8696 6.49073 19.8164 7.50003 18.5218 7.50003Z" fill="#BF381D"/>
</g>
<defs>
<clipPath id="clip0_46_132">
<rect width="24" height="23" fill="white"/>
</clipPath>
</defs>
</svg>
